# xmcd CD database file
#
# Track frame offsets:
#	150
#	17928
#	34601
#	52496
#	72678
#	87812
#	104014
#	117034
#	134580
#	150632
#	166245
#	180873
#	202793
#	218034
#	230362
#	247333
#
# Disc length: 3490 seconds
#
# Revision: 0
# Processed by: cddbd v1.4PL0 Copyright (c) Steve Scherf et al.
# Submitted via: CdAid (MTCDDB.DLL V2003.12.21)
#
DISCID=e20da010
DTITLE=Various Artist - Country Fever Vol 2
DYEAR=2001
DGENRE=Country
TTITLE0=This Night Won't Last Forever
TTITLE1=A Bad Goodbye
TTITLE2=Chattahoochee
TTITLE3=A Thousand Miles From Nowhere
TTITLE4=Not On Your Love
TTITLE5=What Do I Know
TTITLE6=I've Got It Made
TTITLE7=Love Me
TTITLE8=Angel in My Eyes
TTITLE9=Nobody Knows
TTITLE10=Safe In The Arms Of Love
TTITLE11=Your Gonna Miss Me When I'm Gone
TTITLE12=Don't Get Me Started
TTITLE13=Wink
TTITLE14=Meant To Be
TTITLE15=Guys Do It All The Time
EXTD=ID3G:   2 YEAR: 2001
EXTT0=Sawter Brown
EXTT1=Clint Black and Wyonna
EXTT2=Alan Jackson
EXTT3=Dwight Yokam
EXTT4=Jeff Carson
EXTT5=Ricochet
EXTT6=John Anderson
EXTT7=Collin Raye
EXTT8=John Micheal Montgomrey
EXTT9=Kevin Sharp
EXTT10=Martina McBride
EXTT11=Brooks and Dunn
EXTT12=Rhett Atkins
EXTT13=Neal McCoy
EXTT14=Sammy Kershaw
EXTT15=Mindy McCready
PLAYORDER=
